<?xml version="1.0" encoding="iso-8859-1"?>
<!-- Generator: Adobe Illustrator 16.0.0, SVG Export Plug-In . SVG Version: 6.00 Build 0)  -->
<!DOCTYPE svg PUBLIC "-//W3C//DTD SVG 1.1//EN" "http://www.w3.org/Graphics/SVG/1.1/DTD/svg11.dtd">
<svg version="1.1" id="Capa_1" xmlns="http://www.w3.org/2000/svg" xmlns:xlink="http://www.w3.org/1999/xlink" x="0px" y="0px"
	 width="612px" height="612px" viewBox="0 0 612 612" style="enable-background:new 0 0 612 612;" xml:space="preserve">
<g>
	<g>
		<path d="M582.515,181.792H29.43C13.192,181.792,0,167.946,0,150.946s13.192-30.818,29.43-30.818h553.084
			c16.267,0,29.485,13.818,29.485,30.818S598.781,181.792,582.515,181.792z M29.43,147.33c-0.87,0-2.23,1.442-2.23,3.618
			c0,2.203,1.36,3.645,2.23,3.645h553.084c0.926,0,2.285-1.414,2.285-3.645c0-2.203-1.359-3.618-2.285-3.618H29.43z"/>
		<path d="M367.989,285.152H23.446C10.091,285.152,0,271.906,0,254.306c0-17.57,10.091-30.817,23.446-30.817h344.542
			c13.382,0,23.474,13.246,23.474,30.817C391.49,271.906,381.371,285.152,367.989,285.152z M27.635,257.952h336.219
			c0.245-0.925,0.436-2.149,0.436-3.646s-0.19-2.72-0.436-3.618H27.635c-0.245,0.898-0.435,2.122-0.435,3.618
			S27.39,257.027,27.635,257.952z"/>
		<path d="M582.515,388.511H29.43C13.192,388.511,0,374.667,0,357.667s13.192-30.818,29.43-30.818h553.084
			c16.267,0,29.485,13.818,29.485,30.818S598.781,388.511,582.515,388.511z M29.43,354.049c-0.87,0-2.23,1.442-2.23,3.618
			c0,2.203,1.36,3.646,2.23,3.646h553.084c0.926,0,2.285-1.414,2.285-3.646c0-2.203-1.359-3.618-2.285-3.618H29.43L29.43,354.049z"
			/>
		<path d="M368.07,491.872H26.765c-13.328,0-23.365-13.274-23.365-30.845c0-17.571,10.037-30.818,23.365-30.818H368.07
			c13.328,0,23.392,13.246,23.392,30.818C391.49,478.598,381.398,491.872,368.07,491.872z M31.035,464.671h332.818
			c0.245-0.925,0.436-2.148,0.436-3.645s-0.19-2.693-0.436-3.618H31.035c-0.245,0.925-0.435,2.122-0.435,3.618
			C30.6,462.522,30.79,463.747,31.035,464.671z"/>
	</g>
</g>
<g>
</g>
<g>
</g>
<g>
</g>
<g>
</g>
<g>
</g>
<g>
</g>
<g>
</g>
<g>
</g>
<g>
</g>
<g>
</g>
<g>
</g>
<g>
</g>
<g>
</g>
<g>
</g>
<g>
</g>
</svg>
